# xmcd CD database file
#
# Track frame offsets:
#	150
#	18115
#	43071
#	64841
#	99525
#	189007
#	206750
#	254196
#	279025
#	297723
#
# Disc length: 4226 seconds
#
# Revision: 0
# Processed by: cddbd v1.5.2PL0 Copyright (c) Steve Scherf et al.
# Submitted via: CDex 1.70beta2
#
DISCID=9310800a
DTITLE=Lars Danielsson - Melange Bleu
DYEAR=2006
DGENRE=Jazz
TTITLE0=Melange Bleu
TTITLE1=Makro
TTITLE2=Les Coulisses
TTITLE3=Ironside
TTITLE4=Judas Bolero
TTITLE5=Minor People
TTITLE6=Sketches of Twelve
TTITLE7=Naive
TTITLE8=Bacchanalia
TTITLE9=After Zero
EXTD=YEAR: 2006
EXTT0=
EXTT1=
EXTT2=
EXTT3=
EXTT4=
EXTT5=
EXTT6=
EXTT7=
EXTT8=
EXTT9=
PLAYORDER=
